HIERARCHY
ROOT Hips
{
  OFFSET -31.5692 30.0904 122.763
  CHANNELS 6 Xposition Yposition Zposition Zrotation Xrotation Yrotation
  JOINT LeftUpLeg
  {
    OFFSET 8.64259 1.95398 -2.38835
    CHANNELS 3 Zrotation Xrotation Yrotation
    JOINT LeftLeg
    {
      OFFSET 43.7702 0 0
      CHANNELS 3 Zrotation Xrotation Yrotation
      JOINT LeftFoot
      {
        OFFSET 40.6238 0 0
        CHANNELS 3 Zrotation Xrotation Yrotation
        JOINT LeftToeBase
        {
          OFFSET 12.7242 0 0
          CHANNELS 3 Zrotation Xrotation Yrotation
          End Site
          {
            OFFSET 0 0 0
          }
        }
      }
    }
  }
  JOINT RightUpLeg
  {
    OFFSET -8.2249 1.95398 -2.59336
    CHANNELS 3 Zrotation Xrotation Yrotation
    JOINT RightLeg
    {
      OFFSET 43.5653 0 0
      CHANNELS 3 Zrotation Xrotation Yrotation
      JOINT RightFoot
      {
        OFFSET 40.6238 0 0
        CHANNELS 3 Zrotation Xrotation Yrotation
        JOINT RightToeBase
        {
          OFFSET 12.7242 0 0
          CHANNELS 3 Zrotation Xrotation Yrotation
          End Site
          {
            OFFSET 0 0 0
          }
        }
      }
    }
  }
  JOINT Spine
  {
    OFFSET 0.165834 0.87714 6.61349
    CHANNELS 3 Zrotation Xrotation Yrotation
    JOINT Spine1
    {
      OFFSET 7.38963 1.71661e-005 0
      CHANNELS 3 Zrotation Xrotation Yrotation
      JOINT Spine2
      {
        OFFSET 11.9445 1.14441e-005 0
        CHANNELS 3 Zrotation Xrotation Yrotation
        JOINT Spine3
        {
          OFFSET 14.7254 4.19617e-005 0
          CHANNELS 3 Zrotation Xrotation Yrotation
          JOINT Spine4
          {
            OFFSET 10.9679 0 0
            CHANNELS 3 Zrotation Xrotation Yrotation
            JOINT RightShoulder
            {
              OFFSET 2.46616 -1.6653 3.69651
              CHANNELS 3 Zrotation Xrotation Yrotation
              JOINT RightArm
              {
                OFFSET 13.0012 0 0
                CHANNELS 3 Zrotation Xrotation Yrotation
                JOINT RightForeArm
                {
                  OFFSET 28.7848 1.62311e-005 0
                  CHANNELS 3 Zrotation Xrotation Yrotation
                  JOINT RightHand
                  {
                    OFFSET 26.5688 1.62095e-005 0
                    CHANNELS 3 Zrotation Xrotation Yrotation
                    End Site
                    {
                      OFFSET 0 0 0
                    }
                  }
                }
              }
            }
            JOINT LeftShoulder
            {
              OFFSET 2.38034 -1.29275 -3.7523
              CHANNELS 3 Zrotation Xrotation Yrotation
              JOINT LeftArm
              {
                OFFSET 16.3182 6.07031e-005 0
                CHANNELS 3 Zrotation Xrotation Yrotation
                JOINT LeftForeArm
                {
                  OFFSET 27.0901 0 0
                  CHANNELS 3 Zrotation Xrotation Yrotation
                  JOINT LeftHand
                  {
                    OFFSET 24.5451 1.51738e-005 0
                    CHANNELS 3 Zrotation Xrotation Yrotation
                    End Site
                    {
                      OFFSET 0 0 0
                    }
                  }
                }
              }
            }
            JOINT Neck
            {
              OFFSET 5.0226 -0.0266342 0
              CHANNELS 3 Zrotation Xrotation Yrotation
              JOINT Head
              {
                OFFSET 6.69364 2.86102e-005 0
                CHANNELS 3 Zrotation Xrotation Yrotation
                End Site
                {
                  OFFSET 0 0 0
                }
              }
            }
          }
        }
      }
    }
  }
}
MOTION
Frames:	12
Frame Time:	0.0416667
-25.5772 90.7598 19.5648 101.877 49.2106 83.5087 -169.4 28.994 87.6238 -8.04879 22.0023 0.784408 56.2679 12.3938 -24.0041 160.215 -4.72424 -61.6103 174.659 30.7118 97.7952 -50.5459 -5.59632 3.64142 75.5411 -1.74935 -1.93953 18.751 3.147 5.25201 -0.839146 7.85848 -90.183 11.1558 -1.75522 -0.193067 -0.514051 -1.76201 -0.115618 -23.0572 -1.61605 -0.71179 -3.0445 -1.61603 -0.711788 89.3444 -33.4617 -106.738 40.2577 -2.81087 4.67841 7.06732 -24.7547 -9.03357 -18.723 -0.24978 -8.92482 -89.6097 -47.697 78.8223 -19.7814 8.12031 -27.6506 -2.60512 13.0694 0.135011 5.71707 -0.852462 -20.3279 5.61787 -2.30836 -10.0444 -3.47692 -0.37482 2.16047 
-17.8712 89.9454 12.0669 103.073 47.1478 84.1635 -169.998 26.4547 90.4031 -4.74082 22.1332 0.298965 51.5864 11.5467 -24.9105 161.206 -8.06448 -64.1865 174.027 25.4596 99.3319 -57.7905 -7.35732 4.60807 83.347 -6.39262 -1.81133 19.0931 2.92629 5.52091 -0.457877 7.95593 -90.4405 10.958 -1.11545 -0.771235 -0.712614 -1.14829 -0.7214 -23.2484 -0.832104 -1.07081 -3.23574 -0.83209 -1.07081 89.2347 -32.2752 -107.382 37.9511 -4.55438 0.369708 7.27675 -26.0435 -10.3431 -21.7771 -0.272237 -8.66012 -89.8104 -50.1699 79.0448 -21.498 9.22752 -20.449 -3.3475 13.5521 0.00297562 3.74646 -0.0312544 -15.0029 5.99785 -1.40692 -6.47118 -3.45456 -0.143663 1.14913 
-11.5595 90.3376 5.64073 102.996 47.1851 82.6983 -171.695 25.12 89.3805 -3.68051 11.0118 0.201188 53.1859 15.8001 -33.3921 167.527 -0.554061 -56.9739 173.516 18.7025 97.96 -58.7842 -8.36394 3.13442 89.5541 -8.76095 -1.55313 22.3342 1.85801 4.39834 -0.217087 8.00911 -90.2517 10.8544 -0.548454 -0.449345 -0.816485 -0.567693 -0.424787 -23.3515 -0.388046 -0.593404 -3.33889 -0.388053 -0.593414 89.2415 -32.0003 -107.474 35.4897 -4.75515 -5.25935 5.29215 -24.2913 -13.2542 -24.9477 -0.160031 -8.48371 -89.45 -50.7204 79.6977 -24.4652 9.51485 -10.2047 -3.74034 10.9909 -0.00557834 2.54852 0.0573687 -13.6173 4.42187 -1.63979 -6.4573 -2.24437 -0.449948 1.39349 
-6.97577 92.091 0.390649 101.28 44.9364 81.6293 -173.541 25.3325 88.1894 -4.91379 -3.46237 0.094981 57.6464 15.4331 -41.7049 175.909 17.1925 -44.5459 173.654 12.0596 95.5239 -54.1356 -11.1128 0.373058 90.7023 -10.4017 -2.7117 23.6857 1.22989 4.59674 0.371116 8.0522 -89.9438 10.7685 0.765002 0.040934 -0.902213 0.766061 0.00721977 -23.4388 0.717336 0.268964 -3.42614 0.71734 0.268963 89.5705 -30.3093 -107.49 34.2142 -4.5237 -9.77972 2.11505 -23.9935 -18.0373 -25.7338 0.192165 -10.134 -88.8449 -51.3749 80.7219 -24.5928 10.4747 -0.951497 -4.68989 12.9904 -0.0130085 2.26004 -0.0472359 -16.1432 5.18016 -2.20719 -4.12421 -2.35128 -1.41793 -0.314399 
-2.89109 93.6922 -4.76256 100.628 42.7336 81.7402 -176.521 25.6338 88.8048 -7.35769 0.90696 0.107461 57.1726 6.13876 -32.878 172.334 35.2864 -31.1208 173.515 3.43954 94.3308 -47.3236 -13.5081 -0.697588 89.1458 -11.7929 -2.99156 26.0473 0.104998 5.15656 0.938249 8.17705 -89.9288 10.5209 1.90159 -0.0286419 -1.14859 1.89849 -0.112335 -23.6944 1.82224 0.544383 -3.68176 1.82225 0.544382 89.3168 -28.3546 -108.787 32.2831 -4.61099 -13.4312 0.0717465 -23.943 -21.8618 -27.0068 0.489879 -11.3683 -88.8847 -54.3602 81.2142 -22.6446 9.0287 4.92007 -4.32713 12.5739 -0.0484525 1.85338 -0.0440129 -16.1474 5.62434 -2.7674 1.19098 -0.968031 -3.03357 -4.11046 
2.18445 94.9479 -10.7154 102.024 42.4591 80.8269 -177.559 23.7904 87.8625 -8.20268 1.79802 -0.854826 51.8823 -2.82053 -23.1479 119.618 38.0406 -1.95632 172.592 -6.6465 93.7234 -36.688 -14.9504 -1.14637 86.8562 -13.6389 -4.45464 26.8522 -0.11483 4.62265 1.21802 8.33283 -90.0315 10.2126 2.41257 -0.267768 -1.45616 2.39844 -0.373756 -24.009 2.38144 0.470118 -3.99633 2.38144 0.470111 89.234 -27.6877 -109.241 29.9261 -4.62853 -16.2932 -0.724387 -26.8243 -22.5818 -27.5769 0.467324 -11.7535 -88.5765 -56.8813 82.0911 -22.935 5.58248 7.40974 -3.25305 10.4322 -0.0142578 1.59443 -0.00118045 -14.6096 5.07965 -2.99805 4.14853 -0.191123 -3.8635 -5.47942 
8.6823 95.2912 -18.0108 101.475 40.4372 80.6406 -177.53 20.5524 86.0219 -8.33832 -0.455378 -1.76367 52.0078 -3.95546 -14.1056 72.6951 21.0072 14.1815 169.91 -16.2653 88.7608 -28.718 -18.2711 -1.67565 82.5213 -13.3981 -5.2297 31.1372 -1.85979 4.39854 1.54268 8.22094 -89.9496 10.4373 3.09621 -0.172663 -1.23002 3.08561 -0.308902 -23.7936 3.0048 0.766719 -3.78096 3.00481 0.766712 88.7439 -28.0724 -110.068 29.8718 -4.60565 -16.7418 0.337423 -28.071 -20.2914 -25.9352 0.161315 -10.8388 -87.8859 -58.0981 83.2415 -24.5048 5.01057 8.74089 -2.56314 5.00678 -0.00993847 -0.610943 0.021579 -14.9227 4.5861 -3.05579 3.96845 -0.694486 -3.84574 -5.30036 
16.3445 96.5667 -26.3952 100.505 38.3304 80.2178 -177.125 16.2852 83.635 -11.0745 2.5768 -1.9231 53.9635 -2.29562 -6.85239 27.555 -8.48675 22.074 167.962 -18.7455 84.7554 -30.9776 -20.9639 -3.92474 70.5478 -6.12206 -5.18322 40.2501 -5.95359 8.75537 1.61004 7.99349 -89.7128 10.8863 3.33847 0.257821 -0.780395 3.34659 0.110474 -23.3461 3.1065 1.25021 -3.33351 3.1065 1.25019 88.6353 -28.2576 -110.205 33.958 -5.93467 -14.7466 3.05841 -27.9047 -16.3283 -24.438 -0.135044 -9.46363 -86.7594 -58.4302 84.8366 -25.2858 2.74664 8.97048 -1.73017 5.28104 -0.000876974 -1.88365 0.136765 -15.419 5.95399 -2.69986 2.5468 -2.46335 -3.18644 -5.09068 
23.5709 97.7806 -34.0542 102.26 38.685 77.1899 -176.153 14.4779 80.2379 -25.5566 5.19854 -2.52815 64.3018 1.55687 -4.33626 15.2886 -14.4108 14.6678 168.134 -10.4891 81.3047 -50.9546 -24.4039 -6.34521 57.5594 2.80557 0.174981 30.8234 -2.36539 8.48123 1.22564 8.02064 -89.4456 10.8243 2.69655 0.852556 -0.844079 2.73145 0.732972 -23.3946 2.31562 1.62388 -3.382 2.31565 1.62388 88.4534 -28.7733 -110.343 37.3897 -7.2494 -10.7501 5.17133 -28.7953 -14.1824 -24.1006 -0.244929 -9.08778 -87.6265 -56.9842 83.4287 -23.6587 4.90648 3.31321 -3.0354 6.69206 -0.00781217 -1.0822 0.152413 -15.2642 6.01682 -2.51115 0.462801 -2.15325 -2.60739 -4.50236 
29.589 98.9953 -39.8276 103.43 37.9105 75.7401 -175.934 7.73082 79.1723 -27.1647 4.07725 -2.8298 70.102 5.06888 -1.32193 13.6463 -11.2636 7.22039 173.403 1.8851 82.7827 -66.4745 -24.2187 -8.08353 61.6374 -0.316448 -1.04935 26.3166 -0.168541 5.82986 0.894892 8.18399 -89.3055 10.4927 2.1013 1.19315 -1.177 2.15175 1.09949 -23.717 1.6456 1.76954 -3.70436 1.64558 1.76953 88.5465 -29.6018 -109.796 38.7988 -7.53946 -8.00739 6.10714 -30.62 -13.3179 -24.4862 -0.401485 -8.56825 -88.3009 -55.8392 82.3017 -18.6486 6.61508 -6.90834 -3.22355 5.73391 -0.0256171 2.94508 -0.210021 -13.6958 5.71922 -1.89597 -1.05173 -1.92114 -1.72677 -4.5124 
35.7492 100.4 -44.5783 104.471 40.3496 78.0331 -175.611 0.143258 82.3323 -24.0032 7.10134 -0.992405 75.8361 8.84482 -1.46726 8.31638 -15.5718 8.65602 175.958 10.1591 88.4262 -59.0017 -11.8647 -5.15655 68.8668 -4.98686 -2.41786 26.128 -0.00663697 5.50446 0.331736 8.19953 -89.6513 10.4723 0.820804 0.620144 -1.19855 0.847273 0.583411 -23.7338 0.596465 0.838143 -3.72111 0.596472 0.838152 88.8991 -30.1242 -108.882 39.8809 -7.13293 -4.68944 6.18032 -29.2435 -13.4482 -22.7753 -0.25702 -9.30861 -88.2611 -54.3532 82.1074 -14.154 5.76798 -15.6922 -2.99333 3.55545 -0.00453379 5.69519 -0.663563 -14.6902 3.10638 -1.19608 -2.87865 -1.0827 -0.759067 -2.77154 
42.1213 100.616 -49.1807 104.158 43.3425 80.3442 -174.171 -5.4251 85.8479 -21.6954 12.1783 0.116877 78.1644 10.679 0.063786 12.0165 -12.9918 8.36575 177.353 14.2689 92.1383 -36.9141 -3.06507 -2.39524 68.9187 -5.79669 -1.75945 25.6416 0.391416 4.63997 -0.0473436 8.16473 -89.9321 10.5439 -0.0631145 0.14056 -1.12707 -0.056858 0.14319 -23.6622 -0.102442 0.115096 -3.64955 -0.10246 0.115081 89.2483 -30.7418 -107.952 40.0961 -5.70849 -0.441919 5.39306 -26.7601 -14.3431 -23.4677 -0.0021865 -10.116 -88.274 -50.7531 81.4497 -13.6131 4.43486 -23.6696 -2.31354 3.92914 -1.36968 7.51997 -1.24509 -18.7784 2.74049 -1.58088 -5.69003 -1.05726 -0.650707 -1.1492 
